# xmcd
#
# Track frame offsets: 
#        150
#        18446
#        35622
#        52045
#        85117
#        106860
#        126600
#        140357
#        151453
#        173511
#        185318
#        204454
#        223696
#        240015
#        254651
#        270866
#        289824
#        307556
#        317835
#        336751
#
# Disc length: 4732 seconds
#
# Revision: 2
# Processed by: cddbd v1.5.2PL0 Copyright (c) Steve Scherf et al.
# Submitted via: ExactAudioCopyFreeDBPlugin 1.0
#
DISCID=12127a14
DTITLE=Steen1 - Ajatusrikoksia (Kierrätysmateriaalia 2001-2007)
DYEAR=2007
DGENRE=Rap
TTITLE0=Teille Kaikille (feat. Julma-Henri)
TTITLE1=Marssi (feat. Iso H and Redrama)
TTITLE2=Sydän
TTITLE3=Ajat On Kovat (feat. Diami, Asa, Jontti, Shaka, Ville Kalliost
TTITLE3=a, Pyhimys, Heikki Kuula, Pikkupiru and Akli Käärme)
TTITLE4=Bängeri (feat. Ville Kalliosta, Syöpä and Sampsa Nuotio)
TTITLE5=Stikkaa Lamppuun Eldis (feat. Ville Kalliosta)
TTITLE6=Ilmestyskirja
TTITLE7=Tästä Sä Flippaat
TTITLE8=Varoitus (feat. Jontti)
TTITLE9=Terapiaa
TTITLE10=Taipan Circle - Things Crumble
TTITLE11=Ei Ruokaa, Ei Aseita (feat. Akli Käärme)
TTITLE12=Valkoinen Jänis
TTITLE13=Samaa Uudestaan (feat. Saimaa)
TTITLE14=Se Tunne, Jolla Ei Ole Nimeä
TTITLE15=Yhtenä Iltana Humalassa (feat. Illi)
TTITLE16=Taipan Circle - Ladiladidida
TTITLE17=Katkase Sähköt
TTITLE18=Viimeinen Hidas (feat. Kaucas)
TTITLE19=Iltasatu
EXTD=
EXTT0=
EXTT1=
EXTT2=
EXTT3=
EXTT4=
EXTT5=
EXTT6=
EXTT7=
EXTT8=
EXTT9=
EXTT10=
EXTT11=
EXTT12=
EXTT13=
EXTT14=
EXTT15=
EXTT16=
EXTT17=
EXTT18=
EXTT19=
PLAYORDER=
